<svg xmlns="http://www.w3.org/2000/svg" xmlns:xlink="http://www.w3.org/1999/xlink" width="240" zoomAndPan="magnify" viewBox="0 0 180 44.999999" height="60" preserveAspectRatio="xMidYMid meet" version="1.2"><defs/><g id="8fa4ce9820"><g style="fill:#e8c35b;fill-opacity:1;"><g transform="translate(0.00703325, 29.474999)"><path style="stroke:none" d="M 1.09375 0 L 1.09375 -20.6875 L 4.640625 -20.6875 L 4.640625 -3.34375 L 5.375 -3.34375 C 8.289062 -3.34375 10.515625 -4.1875 12.046875 -5.875 C 13.578125 -7.570312 14.34375 -9.96875 14.34375 -13.0625 L 14.34375 -20.6875 L 17.921875 -20.6875 L 17.921875 -13.296875 C 17.921875 -8.984375 16.753906 -5.6875 14.421875 -3.40625 C 12.097656 -1.132812 8.726562 0 4.3125 0 Z M 1.09375 0 "/></g></g><g style="fill:#082567;fill-opacity:1;"><g transform="translate(19.019533, 29.474999)"><path style="stroke:none" d="M 1.09375 -19.0625 C 1.09375 -19.632812 1.285156 -20.097656 1.671875 -20.453125 C 2.054688 -20.804688 2.550781 -20.984375 3.15625 -20.984375 C 3.789062 -20.984375 4.296875 -20.804688 4.671875 -20.453125 C 5.046875 -20.097656 5.234375 -19.632812 5.234375 -19.0625 C 5.234375 -18.488281 5.046875 -18.023438 4.671875 -17.671875 C 4.296875 -17.316406 3.789062 -17.140625 3.15625 -17.140625 C 2.550781 -17.140625 2.054688 -17.316406 1.671875 -17.671875 C 1.285156 -18.023438 1.09375 -18.488281 1.09375 -19.0625 Z M 1.390625 0 L 1.390625 -14.78125 L 4.9375 -14.78125 L 4.9375 0 Z M 1.390625 0 "/></g></g><g style="fill:#082567;fill-opacity:1;"><g transform="translate(25.315674, 29.474999)"><path style="stroke:none" d="M 1.09375 -7.625 C 1.09375 -9.125 1.378906 -10.429688 1.953125 -11.546875 C 2.523438 -12.660156 3.320312 -13.523438 4.34375 -14.140625 C 5.375 -14.765625 6.566406 -15.078125 7.921875 -15.078125 C 8.984375 -15.078125 9.878906 -14.914062 10.609375 -14.59375 C 11.335938 -14.28125 11.882812 -13.890625 12.25 -13.421875 C 12.613281 -12.960938 12.796875 -12.507812 12.796875 -12.0625 L 12.796875 -11.796875 L 13.0625 -11.765625 L 13.0625 -22.171875 L 16.640625 -22.171875 L 16.640625 -7.390625 C 16.640625 -5.847656 16.304688 -4.5 15.640625 -3.34375 C 14.984375 -2.195312 14.078125 -1.300781 12.921875 -0.65625 C 11.773438 -0.0195312 10.425781 0.296875 8.875 0.296875 C 7.3125 0.296875 5.941406 -0.015625 4.765625 -0.640625 C 3.597656 -1.273438 2.691406 -2.179688 2.046875 -3.359375 C 1.410156 -4.546875 1.09375 -5.96875 1.09375 -7.625 Z M 4.609375 -7.390625 C 4.609375 -6.085938 5.003906 -5.035156 5.796875 -4.234375 C 6.585938 -3.441406 7.613281 -3.046875 8.875 -3.046875 C 10.15625 -3.046875 11.171875 -3.4375 11.921875 -4.21875 C 12.679688 -5.007812 13.0625 -6.066406 13.0625 -7.390625 C 13.0625 -8.691406 12.726562 -9.738281 12.0625 -10.53125 C 11.394531 -11.332031 10.300781 -11.734375 8.78125 -11.734375 C 7.5 -11.734375 6.484375 -11.34375 5.734375 -10.5625 C 4.984375 -9.789062 4.609375 -8.734375 4.609375 -7.390625 Z M 4.609375 -7.390625 "/></g></g><g style="fill:#082567;fill-opacity:1;"><g transform="translate(43.051274, 29.474999)"><path style="stroke:none" d="M 4.640625 -7.6875 L 4.640625 0 L 1.09375 0 L 1.09375 -22.171875 L 4.640625 -22.171875 L 4.640625 -11.640625 L 4.9375 -11.640625 C 4.9375 -12.140625 5.101562 -12.648438 5.4375 -13.171875 C 5.769531 -13.691406 6.289062 -14.140625 7 -14.515625 C 7.71875 -14.890625 8.625 -15.078125 9.71875 -15.078125 C 11.789062 -15.078125 13.378906 -14.445312 14.484375 -13.1875 C 15.585938 -11.925781 16.140625 -10.238281 16.140625 -8.125 L 16.140625 0 L 12.5625 0 L 12.5625 -8.046875 C 12.5625 -9.203125 12.234375 -10.101562 11.578125 -10.75 C 10.929688 -11.40625 10.007812 -11.734375 8.8125 -11.734375 C 7.445312 -11.734375 6.410156 -11.347656 5.703125 -10.578125 C 4.992188 -9.816406 4.640625 -8.851562 4.640625 -7.6875 Z M 4.640625 -7.6875 "/></g></g><g style="fill:#082567;fill-opacity:1;"><g transform="translate(60.284366, 29.474999)"><path style="stroke:none" d="M 12.5625 1.03125 L 12.5625 -3.078125 L 12.296875 -3.078125 L 12.296875 -2.8125 C 12.296875 -2.15625 12.078125 -1.59375 11.640625 -1.125 C 11.210938 -0.664062 10.644531 -0.3125 9.9375 -0.0625 C 9.226562 0.175781 8.4375 0.296875 7.5625 0.296875 C 5.238281 0.296875 3.578125 -0.3125 2.578125 -1.53125 C 1.585938 -2.757812 1.09375 -4.535156 1.09375 -6.859375 L 1.09375 -14.78125 L 4.640625 -14.78125 L 4.640625 -6.625 C 4.640625 -5.40625 4.945312 -4.503906 5.5625 -3.921875 C 6.1875 -3.335938 7.140625 -3.046875 8.421875 -3.046875 C 9.742188 -3.046875 10.765625 -3.429688 11.484375 -4.203125 C 12.203125 -4.984375 12.5625 -5.988281 12.5625 -7.21875 L 12.5625 -14.78125 L 16.140625 -14.78125 L 16.140625 0.734375 C 16.140625 2.941406 15.46875 4.648438 14.125 5.859375 C 12.789062 7.078125 10.890625 7.6875 8.421875 7.6875 C 6.191406 7.6875 4.441406 7.1875 3.171875 6.1875 C 1.898438 5.195312 1.265625 3.675781 1.265625 1.625 L 4.8125 1.625 C 4.8125 2.664062 5.125 3.429688 5.75 3.921875 C 6.382812 4.421875 7.316406 4.671875 8.546875 4.671875 C 11.222656 4.671875 12.5625 3.457031 12.5625 1.03125 Z M 12.5625 1.03125 "/></g></g><g style="fill:#082567;fill-opacity:1;"><g transform="translate(77.517459, 29.474999)"><path style="stroke:none" d="M 1.09375 -7.15625 C 1.09375 -8.8125 1.410156 -10.226562 2.046875 -11.40625 C 2.691406 -12.59375 3.597656 -13.5 4.765625 -14.125 C 5.941406 -14.757812 7.3125 -15.078125 8.875 -15.078125 C 10.425781 -15.078125 11.773438 -14.753906 12.921875 -14.109375 C 14.078125 -13.472656 14.984375 -12.578125 15.640625 -11.421875 C 16.304688 -10.273438 16.640625 -8.929688 16.640625 -7.390625 L 16.640625 0 L 13.0625 0 L 13.0625 -3.015625 L 12.796875 -2.984375 L 12.796875 -2.71875 C 12.796875 -2.269531 12.613281 -1.8125 12.25 -1.34375 C 11.882812 -0.882812 11.335938 -0.492188 10.609375 -0.171875 C 9.878906 0.140625 8.984375 0.296875 7.921875 0.296875 C 6.566406 0.296875 5.375 -0.0078125 4.34375 -0.625 C 3.320312 -1.25 2.523438 -2.117188 1.953125 -3.234375 C 1.378906 -4.347656 1.09375 -5.65625 1.09375 -7.15625 Z M 4.609375 -7.390625 C 4.609375 -6.066406 4.984375 -5.007812 5.734375 -4.21875 C 6.484375 -3.4375 7.5 -3.046875 8.78125 -3.046875 C 10.300781 -3.046875 11.394531 -3.445312 12.0625 -4.25 C 12.726562 -5.0625 13.0625 -6.109375 13.0625 -7.390625 C 13.0625 -8.734375 12.679688 -9.789062 11.921875 -10.5625 C 11.171875 -11.34375 10.15625 -11.734375 8.875 -11.734375 C 7.613281 -11.734375 6.585938 -11.332031 5.796875 -10.53125 C 5.003906 -9.738281 4.609375 -8.691406 4.609375 -7.390625 Z M 4.609375 -7.390625 "/></g></g><g style="fill:#017474;fill-opacity:1;"><g transform="translate(95.259376, 29.474999)"><path style="stroke:none" d=""/></g></g><g style="fill:#c7a239;fill-opacity:1;"><g transform="translate(102.150001, 29.474999)"><path style="stroke:none" d="M 1.09375 0 L 1.09375 -20.6875 L 4.640625 -20.6875 L 4.640625 -3.34375 L 5.375 -3.34375 C 8.289062 -3.34375 10.515625 -4.1875 12.046875 -5.875 C 13.578125 -7.570312 14.34375 -9.96875 14.34375 -13.0625 L 14.34375 -20.6875 L 17.921875 -20.6875 L 17.921875 -13.296875 C 17.921875 -8.984375 16.753906 -5.6875 14.421875 -3.40625 C 12.097656 -1.132812 8.726562 0 4.3125 0 Z M 1.09375 0 "/></g></g><g style="fill:#082567;fill-opacity:1;"><g transform="translate(121.162501, 29.474999)"><path style="stroke:none" d="M 1.09375 -19.0625 C 1.09375 -19.632812 1.285156 -20.097656 1.671875 -20.453125 C 2.054688 -20.804688 2.550781 -20.984375 3.15625 -20.984375 C 3.789062 -20.984375 4.296875 -20.804688 4.671875 -20.453125 C 5.046875 -20.097656 5.234375 -19.632812 5.234375 -19.0625 C 5.234375 -18.488281 5.046875 -18.023438 4.671875 -17.671875 C 4.296875 -17.316406 3.789062 -17.140625 3.15625 -17.140625 C 2.550781 -17.140625 2.054688 -17.316406 1.671875 -17.671875 C 1.285156 -18.023438 1.09375 -18.488281 1.09375 -19.0625 Z M 1.390625 0 L 1.390625 -14.78125 L 4.9375 -14.78125 L 4.9375 0 Z M 1.390625 0 "/></g></g><g style="fill:#082567;fill-opacity:1;"><g transform="translate(127.458642, 29.474999)"><path style="stroke:none" d="M 1.03125 -10.578125 C 1.03125 -12.117188 1.609375 -13.257812 2.765625 -14 C 3.929688 -14.738281 5.59375 -15.109375 7.75 -15.109375 C 8.851562 -15.109375 9.851562 -15.039062 10.75 -14.90625 C 11.644531 -14.78125 12.488281 -14.570312 13.28125 -14.28125 L 13.28125 -11.078125 C 12.738281 -11.273438 11.953125 -11.503906 10.921875 -11.765625 C 9.890625 -12.023438 8.734375 -12.15625 7.453125 -12.15625 C 5.535156 -12.15625 4.578125 -11.707031 4.578125 -10.8125 C 4.578125 -10.382812 4.796875 -10.050781 5.234375 -9.8125 C 5.679688 -9.570312 6.257812 -9.363281 6.96875 -9.1875 C 7.6875 -9.007812 8.441406 -8.820312 9.234375 -8.625 C 10.035156 -8.4375 10.785156 -8.179688 11.484375 -7.859375 C 12.179688 -7.546875 12.753906 -7.113281 13.203125 -6.5625 C 13.660156 -6.007812 13.890625 -5.289062 13.890625 -4.40625 C 13.890625 -2.863281 13.3125 -1.6875 12.15625 -0.875 C 11.007812 -0.0703125 9.351562 0.328125 7.1875 0.328125 C 6.101562 0.328125 5.109375 0.257812 4.203125 0.125 C 3.296875 0 2.4375 -0.207031 1.625 -0.5 L 1.625 -3.6875 C 2.15625 -3.5 2.9375 -3.273438 3.96875 -3.015625 C 5.007812 -2.753906 6.171875 -2.625 7.453125 -2.625 C 8.429688 -2.625 9.148438 -2.769531 9.609375 -3.0625 C 10.078125 -3.363281 10.3125 -3.734375 10.3125 -4.171875 C 10.3125 -4.597656 10.085938 -4.929688 9.640625 -5.171875 C 9.203125 -5.410156 8.628906 -5.613281 7.921875 -5.78125 C 7.210938 -5.945312 6.460938 -6.128906 5.671875 -6.328125 C 4.890625 -6.523438 4.140625 -6.785156 3.421875 -7.109375 C 2.710938 -7.429688 2.132812 -7.867188 1.6875 -8.421875 C 1.25 -8.972656 1.03125 -9.691406 1.03125 -10.578125 Z M 1.03125 -10.578125 "/></g></g><g style="fill:#082567;fill-opacity:1;"><g transform="translate(142.208728, 29.474999)"><path style="stroke:none" d="M 9.71875 0 C 6.625 0 4.410156 -0.75 3.078125 -2.25 C 1.753906 -3.75 1.09375 -6.023438 1.09375 -9.078125 L 1.09375 -17.859375 L 4.640625 -17.859375 L 4.640625 -14.609375 L 9.71875 -14.609375 L 9.71875 -11.4375 L 4.640625 -11.4375 L 4.640625 -8.546875 C 4.640625 -6.753906 5.007812 -5.460938 5.75 -4.671875 C 6.488281 -3.878906 7.8125 -3.484375 9.71875 -3.484375 Z M 9.71875 0 "/></g></g><g style="fill:#082567;fill-opacity:1;"><g transform="translate(152.317921, 29.474999)"><path style="stroke:none" d="M 1.09375 -7.15625 C 1.09375 -8.8125 1.410156 -10.226562 2.046875 -11.40625 C 2.691406 -12.59375 3.597656 -13.5 4.765625 -14.125 C 5.941406 -14.757812 7.3125 -15.078125 8.875 -15.078125 C 10.425781 -15.078125 11.773438 -14.753906 12.921875 -14.109375 C 14.078125 -13.472656 14.984375 -12.578125 15.640625 -11.421875 C 16.304688 -10.273438 16.640625 -8.929688 16.640625 -7.390625 L 16.640625 0 L 13.0625 0 L 13.0625 -3.015625 L 12.796875 -2.984375 L 12.796875 -2.71875 C 12.796875 -2.269531 12.613281 -1.8125 12.25 -1.34375 C 11.882812 -0.882812 11.335938 -0.492188 10.609375 -0.171875 C 9.878906 0.140625 8.984375 0.296875 7.921875 0.296875 C 6.566406 0.296875 5.375 -0.0078125 4.34375 -0.625 C 3.320312 -1.25 2.523438 -2.117188 1.953125 -3.234375 C 1.378906 -4.347656 1.09375 -5.65625 1.09375 -7.15625 Z M 4.609375 -7.390625 C 4.609375 -6.066406 4.984375 -5.007812 5.734375 -4.21875 C 6.484375 -3.4375 7.5 -3.046875 8.78125 -3.046875 C 10.300781 -3.046875 11.394531 -3.445312 12.0625 -4.25 C 12.726562 -5.0625 13.0625 -6.109375 13.0625 -7.390625 C 13.0625 -8.734375 12.679688 -9.789062 11.921875 -10.5625 C 11.171875 -11.34375 10.15625 -11.734375 8.875 -11.734375 C 7.613281 -11.734375 6.585938 -11.332031 5.796875 -10.53125 C 5.003906 -9.738281 4.609375 -8.691406 4.609375 -7.390625 Z M 4.609375 -7.390625 "/></g></g><g style="fill:#082567;fill-opacity:1;"><g transform="translate(170.053521, 29.474999)"><path style="stroke:none" d="M 4.640625 -7.328125 L 4.640625 0 L 1.09375 0 L 1.09375 -6.890625 C 1.09375 -9.453125 1.804688 -11.429688 3.234375 -12.828125 C 4.660156 -14.222656 6.578125 -14.921875 8.984375 -14.921875 L 8.984375 -11.46875 C 7.679688 -11.445312 6.628906 -11.070312 5.828125 -10.34375 C 5.035156 -9.613281 4.640625 -8.609375 4.640625 -7.328125 Z M 4.640625 -7.328125 "/></g></g></g></svg>